<?xml version="1.0" encoding="utf-8"?>
<!-- Generator: Adobe Illustrator 26.3.1, SVG Export Plug-In . SVG Version: 6.00 Build 0)  -->
<svg version="1.1" xmlns="http://www.w3.org/2000/svg" xmlns:xlink="http://www.w3.org/1999/xlink" x="0px" y="0px"
	 viewBox="0 0 1024 1024" style="enable-background:new 0 0 1024 1024;" xml:space="preserve">
<style type="text/css">
	.st0{fill:#FFFFFF;}
	.st1{display:none;}
	.st2{display:inline;fill:#FFFFFF;}
	.st3{font-family:'Impact';}
	.st4{font-size:441px;}
	.st5{font-size:151px;}
</style>
<g id="Klappe">
</g>
<g id="Schrift__x28_Pfad_x29_">
	<g>
		<path class="st0" d="M220.74,328.81l775.41-131.64c0,0-5.67-54.12-6.27-59.8C978.55,74.81,922.6,33.78,862.1,44.78L106.94,171.61
			C45.32,182.81,4.8,238.88,15.8,299.39l6.75,46.29v524.17c0,61.08,49.83,111.39,110.91,111.39h764.8
			c61.08,0,110.91-50.31,110.91-111.39V328.81H220.74z M696.69,359.67h95.48l-85.35,128.27h-95.48L696.69,359.67z M314.78,359.67
			h95.48L324.9,487.94h-95.96L314.78,359.67z M867.4,75.16c3.14-0.57,6.06,0.67,9.16,0.48l85.35,90.17
			c0.24,2.44,0.23,3.44,0.48,5.79l-89.69,15.43l-93.07-96.93L867.4,75.16z M687.05,105.54l90.18,97.41l-92.59,15.91l-91.62-97.41
			L687.05,105.54z M498.99,136.89l92.1,97.89l-95.48,16.4l-91.14-98.37L498.99,136.89z M308.51,169.19l94.51,97.89L307.54,283
			l-91.14-98.37L308.51,169.19z M121.41,225.13c19.79,0,36.17,15.89,36.17,35.69c0,19.79-16.38,35.68-36.17,35.68
			s-35.68-15.89-35.68-35.68C85.72,241.02,101.62,225.13,121.41,225.13z M53.42,487.94v-23.15l69.92-105.12h95.48l-85.35,128.27
			H53.42z M319.21,885.67c-5.81,11.77-17.05,21.64-33.7,29.61c-16.65,7.97-36.03,11.95-58.14,11.95c-24.26,0-44.97-4.6-62.12-13.78
			c-17.16-9.19-28.39-20.89-33.7-35.1c-5.31-14.21-7.97-34.38-7.97-60.51v-22.83h84.19v42.42c0,13.07,1.18,21.46,3.55,25.19
			c2.37,3.73,6.57,5.6,12.6,5.6s10.51-2.37,13.46-7.11c2.94-4.74,4.41-11.77,4.41-21.1c0-20.53-2.8-33.95-8.4-40.27
			c-5.74-6.32-19.88-16.87-42.42-31.65c-22.54-14.93-37.47-25.77-44.79-32.52c-7.32-6.75-13.39-16.08-18.2-27.99
			c-4.81-11.91-7.21-27.13-7.21-45.65c0-26.7,3.41-46.22,10.23-58.57c6.82-12.34,17.84-22,33.05-28.96
			c15.21-6.96,33.59-10.44,55.12-10.44c23.54,0,43.6,3.81,60.19,11.41c16.58,7.61,27.56,17.19,32.95,28.75
			c5.38,11.56,8.08,31.19,8.08,58.89v13.78H236.2v-25.84c0-12.06-1.08-19.74-3.23-23.04c-2.15-3.3-5.74-4.95-10.77-4.95
			c-5.46,0-9.58,2.23-12.38,6.68c-2.8,4.46-4.2,11.2-4.2,20.25c0,11.63,1.57,20.4,4.72,26.29c3,5.89,11.54,13,25.62,21.31
			c40.35,23.95,65.77,43.61,76.25,58.97c10.48,15.36,15.72,40.13,15.72,74.29C327.93,855.6,325.02,873.9,319.21,885.67z
			 M509.88,641.05h-62.88v66.11h55.99v66.32h-55.99v146.43h-90.65V571.29h153.53V641.05z M420.38,487.94l85.35-128.27h95.48
			l-85.35,128.27H420.38z M675.33,800.36H648.2l-0.04-80.59l-10.8,80.59h-19.24l-11.39-78.74l-0.04,78.74h-27.13V680.99h40.17
			c1.19,7.18,2.42,15.63,3.68,25.38l4.41,30.36l7.13-55.74h40.39V800.36z M754.37,753.18h-38.56v21.16c0,4.42,0.32,7.28,0.96,8.55
			c0.64,1.28,1.87,1.92,3.69,1.92c2.26,0,3.77-0.85,4.54-2.54c0.76-1.7,1.14-4.98,1.14-9.84v-12.9h28.24v7.23
			c0,6.05-0.38,10.69-1.14,13.94c-0.76,3.24-2.54,6.71-5.35,10.4c-2.8,3.69-6.35,6.45-10.65,8.29c-4.3,1.84-9.7,2.76-16.18,2.76
			c-6.29,0-11.85-0.91-16.66-2.73c-4.82-1.82-8.57-4.31-11.24-7.48c-2.68-3.17-4.54-6.66-5.57-10.47
			c-1.03-3.81-1.55-9.35-1.55-16.63v-28.53c0-8.55,1.15-15.3,3.46-20.24c2.31-4.94,6.09-8.72,11.36-11.35
			c5.26-2.63,11.3-3.94,18.14-3.94c8.36,0,15.25,1.58,20.68,4.75c5.43,3.17,9.24,7.37,11.43,12.61c2.19,5.23,3.28,12.6,3.28,22.08
			V753.18z M831.86,800.36h-29.79v-7.1c-2.85,2.96-5.85,5.17-8.99,6.65c-3.15,1.48-6.44,2.22-9.88,2.22
			c-4.62,0-8.63-1.22-12.02-3.65c-3.39-2.43-5.57-5.25-6.53-8.44c-0.96-3.19-1.44-8.41-1.44-15.63v-45.79c0-7.52,0.48-12.85,1.44-16
			c0.96-3.15,3.16-5.91,6.6-8.29c3.44-2.38,7.54-3.58,12.31-3.58c3.69,0,7.07,0.67,10.14,2c3.07,1.33,5.86,3.33,8.37,5.99v-27.74
			h29.79V800.36z M873.22,800.36h-30.67v-97.84h30.67V800.36z M873.22,696.55h-30.67v-15.56h30.67V696.55z M949.76,800.36h-28.98
			v-8.72c-1.82,3.5-4.17,6.12-7.04,7.87c-2.88,1.75-6.3,2.62-10.29,2.62c-5.21,0-9.99-1.46-14.34-4.39
			c-4.35-2.92-6.53-9.33-6.53-19.21v-8.04c0-7.32,1.15-12.31,3.47-14.97c2.31-2.65,8.04-5.75,17.18-9.29
			c9.78-3.83,15.02-6.42,15.7-7.74c0.69-1.33,1.03-4.03,1.03-8.11c0-5.11-0.38-8.44-1.14-9.99c-0.76-1.55-2.03-2.32-3.8-2.32
			c-2.02,0-3.27,0.65-3.76,1.95c-0.49,1.3-0.74,4.68-0.74,10.14v10.25h-27.94v-6.56c0-7.57,0.87-13.41,2.62-17.51
			c1.74-4.1,5.25-7.73,10.51-10.88c5.26-3.15,12.09-4.72,20.5-4.72c10.08,0,17.67,1.78,22.78,5.34c5.11,3.56,8.18,7.94,9.22,13.12
			c1.03,5.19,1.55,15.87,1.55,32.04V800.36z M978.31,367.39l-80.05,120.55H802.3l85.83-128.27h90.17V367.39z"/>
		<path class="st0" d="M911.68,762.61c-0.76,2.36-1.14,5.75-1.14,10.17c0,5.06,0.33,8.33,1,9.81c0.66,1.47,1.98,2.21,3.94,2.21
			c1.87,0,3.08-0.58,3.65-1.73c0.56-1.15,0.85-4.19,0.85-9.11v-20.13C915.2,757.33,912.44,760.25,911.68,762.61z"/>
		<path class="st0" d="M797.5,718.08c-1.77,0-2.96,0.55-3.58,1.66c-0.62,1.11-0.92,3.58-0.92,7.41v47.93c0,3.98,0.29,6.6,0.88,7.85
			c0.59,1.25,1.72,1.88,3.39,1.88c1.92,0,3.19-0.7,3.83-2.1c0.64-1.4,0.96-4.83,0.96-10.29v-45.27c0-3.59-0.31-6-0.92-7.22
			C800.54,718.7,799.32,718.08,797.5,718.08z"/>
		<path class="st0" d="M720.38,718.08c-2.06,0-3.34,0.63-3.83,1.88c-0.49,1.25-0.74,4.63-0.74,10.14v7.15h8.7v-7.15
			c0-5.06-0.27-8.33-0.81-9.81S722.05,718.08,720.38,718.08z"/>
	</g>
</g>
<g id="Schrift__x28_Text_x29_" class="st1">
	<text transform="matrix(1 0 0 1 100.2271 901.9092)" class="st2 st3 st4">SF</text>
	<text transform="matrix(1 0 0 1 563.3633 782.3633)" class="st2 st3 st5">Media</text>
</g>
</svg>
